<?xml version="1.0" encoding="UTF-8"?>
<svg width="885px" height="513px" viewBox="0 0 885 513" version="1.1" xmlns="http://www.w3.org/2000/svg" xmlns:xlink="http://www.w3.org/1999/xlink">
    <!-- Generator: Sketch 61 (89581) - https://sketch.com -->
    <title>画板</title>
    <desc>Created with Sketch.</desc>
    <g id="画板" stroke="none" stroke-width="1" fill="none" fill-rule="evenodd">
        <g id="Scene/Wireframe" opacity="0.4" transform="translate(545.500000, 299.500000) rotate(-360.000000) translate(-545.500000, -299.500000) translate(148.000000, -66.000000)">
            <path d="M737.867285,212.659154 C737.333852,212.27124 736.068297,212.133691 735.479537,212.017486 C733.032287,211.53505 730.511268,211.325 728.016347,211.325 C720.32315,211.336519 712.505034,212.091681 704.939541,213.398733 C700.136208,214.228429 694.329339,217.020735 689.55106,215.504311 C681.226652,212.86209 672.813512,212.991846 664.915711,216.763932 C657.695053,220.213151 652.213533,226.763992 649.014675,233.842328 C648.532045,234.910871 646.574037,238.843544 646.019726,241.494574 C645.78276,242.036638 645.55519,242.582428 645.34989,243.13635 C644.767393,244.709012 644.245095,246.309455 643.759682,247.912948 C643.552293,248.596964 643.030691,250.10729 643.650072,250.399326 C642.660455,252.225742 641.783231,254.108059 641.0525,256.051357 C638.927468,261.703049 636.604094,267.902565 635.857357,273.892708 C635.580724,276.110765 635.570285,278.341696 635.827084,280.564158 C635.954092,281.662514 635.901549,283.871424 636.646198,284.706541 C638.226663,286.478751 639.038121,283.997793 638.859962,282.816094 C637.499412,273.809704 640.126561,265.352155 643.240167,256.886135 C645.253503,251.41163 648.561623,246.4033 652.267468,241.867582 C655.266594,238.196116 658.483894,235.304884 662.595121,232.870679 C667.622544,229.894071 672.997587,227.487647 678.323217,225.073769 C681.825851,223.485523 685.332659,221.939963 688.933071,220.571591 C689.733743,220.267019 690.993382,219.486447 691.881045,219.483398 C693.758326,219.476622 696.418532,220.861934 698.231786,221.377233 C704.195936,223.072877 710.236291,225.243842 716.400173,226.109789 C720.353771,226.665743 724.057877,226.039998 727.755372,224.722783 C728.133264,224.588622 728.766563,224.242718 729.542529,223.748762 C732.287638,222.692754 734.884514,221.363682 737.145602,219.44647 C738.448389,218.341676 739.630432,216.914016 740.708433,215.607304 C741.030999,215.216679 741.173665,214.768799 741.178536,214.343279 C741.422809,214.215555 741.584962,214.066487 741.621498,213.892349 C741.890476,212.606303 739.437659,212.582588 737.867285,212.659154" id="Twisted-Leaf" fill="#5C63AB"></path>
            <path d="M94.5044582,300.28332 C92.5623336,300.28332 90.6261301,300.322128 88.6864437,300.422555 C87.2079073,300.499491 84.9484808,300.194468 83.6973848,301.111581 C82.3975267,302.064099 82.48704,304.014071 82.6900993,305.391103 C83.7635619,312.673201 86.3834796,319.130442 91.8643391,324.28963 C100.303316,332.233861 109.977716,336.270317 121.425662,338.067778 C129.467228,339.330425 136.890909,337.577221 142.810627,331.886284 C147.135825,339.87511 150.417166,348.715688 152.063583,357.63831 C152.87582,362.041066 153.12381,366.390717 152.981007,370.873815 C152.889056,373.745326 152.729882,376.610028 152.420591,379.467923 C152.286495,380.709804 151.65015,382.589648 152.138816,383.763104 C152.712119,385.141157 154.645536,385.274605 155.513501,384.099447 C156.235877,383.121397 156.103174,381.200702 156.25155,380.043246 C156.497451,378.120508 156.725239,376.196408 156.888244,374.264819 C157.152952,371.138327 157.348697,368.002984 157.335151,364.864577 C157.301329,357.81329 155.725965,350.734427 153.571028,344.040929 C149.437048,331.19964 142.729473,319.787128 132.29752,310.832847 C125.883214,305.326762 118.542081,303.096958 110.213167,301.900013 C105.027666,301.154816 99.757529,300.28332 94.5044582,300.28332" id="Fill-16" fill="#DDE3E9" transform="translate(119.953500, 342.590074) rotate(-39.000000) translate(-119.953500, -342.590074) "></path>
            <path d="M137.602638,324.718746 C136.027622,312.177033 134.360307,299.707151 131.308844,287.409185 C129.51022,280.162151 127.205166,273.067629 125.110834,265.902979 C125.298568,266.801709 125.464707,267.706226 125.608904,268.613127 C124.880259,266.47626 123.358533,264.432329 122.483254,262.302951 C121.506967,259.928125 120.721897,257.461382 119.976185,255.009279 C118.520289,250.22354 117.146591,245.429631 115.508184,240.698702 C113.682392,235.427853 111.580049,230.244494 109.620858,225.019944 C107.958071,220.585868 106.400818,215.930513 104.23613,211.698991 C103.056435,209.392591 101.998646,206.915295 100.840546,204.564299 C100.452888,203.777569 97.1266162,194.988736 97.1516938,194.988736 C97.7016606,194.988736 99.7642972,198.89549 100.10598,199.469451 C101.104558,201.14572 101.953019,202.890073 102.810535,204.637831 C103.180778,202.562581 103.766969,200.530906 104.690314,198.623147 C104.975224,198.034206 106.975166,193.691024 107.626488,193.691024 C107.951801,193.691024 104.945618,201.892619 104.565622,202.612624 C104.257028,203.19748 103.678848,203.938932 103.477531,204.561235 C103.152218,205.566179 103.31975,205.314943 103.58829,206.221503 C104.080439,207.883133 105.169575,209.510379 105.855031,211.105966 C106.231196,211.957717 107.158372,214.909909 108.060471,216.232132 C110.383288,220.772422 112.033885,226.308464 113.802208,231.204502 C114.182552,228.799036 114.840144,226.4797 115.75095,224.216193 C115.966896,223.678657 117.685412,218.691045 118.180347,218.691045 C118.73728,218.691045 116.604635,226.679191 116.314849,227.369238 C115.776724,228.65095 114.930702,229.89147 114.483135,231.195991 C113.992031,232.627832 114.854772,233.916692 115.404391,235.381214 C117.426276,240.76917 119.198778,246.210914 120.818376,251.725849 C130.224236,247.606329 132.094611,235.481981 132.708317,226.540977 C133.15031,220.097013 132.152777,213.53492 130.588907,207.283979 C128.501889,198.941447 124.99067,190.887258 121.265246,183.132987 C116.924375,174.097684 110.95485,166.027835 103.757216,158.954079 C99.9927824,155.254306 95.7055494,152.047814 91.3510943,149.043195 C89.2240221,147.575269 87.0387837,146.356877 84.5557482,145.54019 C83.4363098,145.172527 82.2872659,144.906313 81.1256831,144.702396 C80.2430892,144.547501 78.4423747,143.729112 77.710595,143.937795 C71.7351486,145.590914 67.2434631,148.340551 63.7611529,153.45208 C60.464487,158.290585 58.4182206,164.075139 57.2806705,169.749736 C56.0142493,176.068763 55.7087896,182.439875 56.795836,188.799413 C57.6251399,193.651535 59.0556108,198.408337 60.4881715,203.1185 C65.5831138,219.871309 74.5135431,237.831956 90.5378123,247.021814 C95.7247059,249.996815 101.480026,251.735722 107.388251,252.657601 C108.780408,252.874794 110.171173,253.081434 111.580049,253.160754 C112.529865,253.214542 115.652381,252.583728 116.339578,252.993263 C117.281731,253.554629 117.822991,256.739334 118.233637,257.894067 C121.353715,266.670644 124.143951,275.546626 126.675749,284.501929 C129.369158,294.029831 131.508769,303.65033 133.291024,313.378063 C134.048926,317.515627 134.787323,321.646382 135.416006,325.806413 C135.562641,326.774251 135.41113,329.818359 136.355721,330.673174 C136.953057,331.213774 137.797338,330.992155 138.152604,330.330363 C138.77049,329.179716 137.763901,326.00284 137.602638,324.718746" id="Leaf" fill="#8991DC" transform="translate(97.241133, 237.440480) rotate(-37.000000) translate(-97.241133, -237.440480) "></path>
            <path d="M728.473724,253.522275 C725.062775,252.77712 721.296561,252.834151 717.822097,252.895621 C699.188554,253.149015 680.890731,261.971014 668.982071,276.067157 C658.844145,288.067507 656.056477,302.987351 654.053669,318.069408 C653.855099,319.56689 653.769947,321.054811 653.657924,322.555367 C653.633844,322.877403 653.597899,323.164605 653.559511,323.435074 C652.771859,324.139249 652.358664,324.960218 652.824904,325.862123 C651.089766,329.659274 649.621947,333.552729 648.362472,337.568441 C644.655585,349.388479 640.884835,361.433224 643.207659,373.8625 C643.750326,367.022573 644.891846,360.028288 646.257063,353.300716 C646.335584,352.914478 646.420387,352.531314 646.508679,352.149515 C646.517753,352.109218 646.526128,352.068921 646.535202,352.028965 C647.018542,349.968689 647.64671,347.970224 648.410631,346.003178 C648.418658,345.981663 648.426335,345.96049 648.434711,345.939317 C648.535567,345.680459 648.642704,345.422967 648.748446,345.165475 C648.967257,344.632392 649.192002,344.100333 649.430356,343.571006 C649.510971,343.390694 649.588445,343.208674 649.662778,343.025288 C650.774984,340.299425 651.244714,337.227964 652.241057,334.407506 C652.479412,333.766167 652.728585,333.127218 652.989623,332.491685 C653.004979,332.454461 653.020683,332.417237 653.036387,332.380014 C653.742028,330.669776 654.521654,328.98037 655.34595,327.308722 C655.794042,326.972001 656.033444,326.13669 656.419767,325.377533 C656.499684,325.227955 657.124362,324.23043 657.310369,323.655684 C657.795803,322.716556 658.279492,321.777086 658.768416,320.839665 C658.753758,320.845129 658.739101,320.850593 658.724444,320.856057 C659.213717,319.95586 659.704385,319.05942 660.191215,318.166736 C660.298353,317.970714 660.406537,317.774351 660.514372,317.577646 C660.689212,317.26449 660.864052,316.951675 661.038543,316.639543 C662.670732,313.718683 664.401334,310.856221 666.198591,308.029274 C666.84002,307.02048 668.372399,305.573881 668.666242,304.441122 C668.677061,304.398775 668.679504,304.359844 668.686134,304.319206 C672.586008,298.841869 677.075661,293.789701 682.459754,289.786624 C681.808903,290.490116 680.425538,292.877551 680.059805,293.350189 C678.94062,294.79747 677.725465,296.144693 676.505773,297.508307 C674.321495,299.951064 672.188866,302.471343 670.293894,305.136418 C666.828503,310.010322 663.838775,315.13967 661.012719,320.37215 C660.985847,320.402885 660.956533,320.431913 660.931057,320.463331 C659.5107,322.214207 658.616609,324.8605 657.594091,326.863404 C661.640537,324.989246 666.114835,323.768379 670.26772,322.104244 C674.409089,320.445231 678.437737,318.59771 682.327141,316.428153 C687.496611,313.544859 692.859068,310.289329 697.743419,306.605214 C703.340741,303.133172 708.04432,298.354205 712.196158,293.339261 C717.108429,287.405678 721.610296,281.420187 724.394474,274.215538 C725.762134,270.675195 726.838046,266.983568 727.475985,263.248911 C727.503903,263.086015 727.5395,262.909459 727.578237,262.726073 C728.230833,261.436223 728.814331,260.117346 729.303952,258.768075 C730.081484,256.628228 731.917827,254.274261 728.473724,253.522275" id="Fill-10" fill="#2F3676"></path>
            <path d="M93.7639841,285.625867 C93.3490036,284.10653 93.099828,282.53563 93.2150483,280.946096 C93.2443218,280.544309 93.5813178,277.625867 93.9075411,277.625867 C94.6672457,277.625867 93.6208955,285.157966 93.7639841,285.625867 M80.542564,292.199769 C80.5886016,292.218227 81.4250651,293.825952 81.6994582,294.292755 C82.2823716,295.285746 82.9039932,296.254661 83.542564,297.199769 C82.3444421,295.642602 81.2695452,294.140275 80.542564,292.199769 M125.417797,244.367141 C126.129432,243.76687 125.740102,242.267232 124.89602,243.095201 C124.214559,243.766091 124.194264,243.699625 123.337632,243.656786 C122.642018,243.621995 121.902078,243.405981 121.202993,243.320042 C119.720175,243.13778 118.245634,243.060669 116.753737,243.164782 C113.555784,243.387547 110.444082,244.149309 107.482718,245.334013 C102.314884,247.401727 97.0981832,250.081136 92.9869873,253.812316 C86.4500897,259.744922 81.2005444,267.865711 78.1029949,275.963133 C76.1843834,280.977938 75.1515109,286.011176 76.8954847,291.226936 C77.766804,293.833647 79.1460146,296.314177 81.1476724,298.272586 C81.6710515,298.784322 82.3607903,299.180781 82.8505236,299.717961 C83.6035485,300.543852 83.4310471,300.279287 82.9415809,301.457759 C82.4069865,302.744499 81.8771988,304.032796 81.3508824,305.32291 C79.9732739,308.70099 78.6170279,312.117236 77.616733,315.622536 C77.2872179,316.776084 77.0338063,317.947287 76.8500895,319.131212 C76.7106998,320.026425 75.9015985,323.432286 76.605757,324.347491 C77.7772182,325.870756 78.2762975,323.531725 78.3139487,322.731537 C78.3467934,322.030529 78.4079433,321.327963 78.4955292,320.631109 C78.7160961,318.876512 79.1150391,317.154109 79.6333446,315.461824 C80.1933068,313.632972 80.8795742,311.838391 81.5615691,310.049782 C82.1979019,308.381902 82.8638751,306.724926 83.5429327,305.073403 C83.9199793,304.155861 84.3015653,303.240137 84.6831514,302.324413 C84.8134621,302.011556 84.8804866,301.35806 85.2254896,301.626261 C85.9795826,299.670967 87.2073872,297.814075 88.225306,295.978472 C89.4723367,293.730313 90.7447353,291.486828 92.177886,289.344859 C93.2115596,287.800044 94.3002415,286.287684 95.4914629,284.852435 C96.1876104,284.013822 96.9318234,283.225577 97.7224996,282.470046 C98.1569576,282.055153 99.64031,280.275372 100.238725,280.275372 C99.9815745,280.275372 98.8183913,282.535733 98.6370778,282.802636 C97.9126251,283.870764 97.1262213,284.888265 96.3235288,285.90187 C94.8340347,287.782909 93.4518867,289.73223 92.2016517,291.771385 C92.5624094,291.986101 94.0625847,290.996901 94.5098601,290.806071 C95.5130923,290.378456 96.5443627,290.012893 97.6010009,289.730932 C99.4622009,289.233995 101.737031,288.667996 103.574465,288.667996 C103.032928,288.667996 101.776017,289.551786 101.212316,289.791946 C100.308953,290.176462 99.3826259,290.527226 98.443481,290.820091 C97.5764341,291.090369 96.6936325,291.296517 95.8049562,291.486309 C94.9157459,291.67584 93.3090256,291.68311 92.4999243,292.15668 C92.4510578,292.18524 92.5017935,292.643751 92.3103329,292.766557 C92.1175372,292.890402 91.5653189,292.849899 91.5204578,292.883911 C90.8579561,293.381367 90.3946588,294.822847 89.9959828,295.531904 C88.9615081,297.370363 87.9537364,299.223101 86.9360846,301.070387 C86.620722,301.642618 86.2012176,302.034144 86.4786619,302.498107 C86.7747984,302.992707 88.1737692,303.299593 88.7203799,303.479778 C90.7500759,304.149371 92.806742,304.371097 94.9229557,304.019554 C98.886751,303.361645 102.327167,301.645993 105.428989,299.217389 C117.309694,289.915271 127.054157,278.209994 130.028873,263.347844 C131.260149,257.19481 132.586754,247.598528 125.417797,244.367141" id="Leave-the-Leaf!" fill="#5C63AB" transform="translate(103.503362, 283.851613) scale(-1, 1) rotate(-302.000000) translate(-103.503362, -283.851613) "></path>
            <g id="Background-Shape-2" opacity="0.6" stroke-width="1" transform="translate(41.898649, 384.850000)" fill="#DDE3E9">
                <path d="M710.892449,157.113808 C721.259445,227.336999 469.842151,273.141184 253.441458,241.175548 C37.040765,209.209912 -62.2336125,84.3804969 41.0291904,17.8664777 C144.291993,-48.6475415 700.525453,86.8906162 710.892449,157.113808 Z" id="Background-Shape"></path>
            </g>
            <g id="Mobile3" stroke-width="1" transform="translate(154.165541, 93.025000)">
                <rect id="Container" fill="#F2F2F2" x="0" y="0" width="159" height="302" rx="8"></rect>
                <circle id="Touch" fill="#FFFFFF" cx="79" cy="268" r="15"></circle>
                <g id="Camera" transform="translate(64.000000, 16.000000)" fill="#FFFFFF">
                    <circle id="Lens" cx="2" cy="2" r="2"></circle>
                    <rect id="Sensor" x="9" y="0" width="21" height="4" rx="2"></rect>
                </g>
                <g id="Rows" transform="translate(14.000000, 28.000000)">
                    <g id="Row">
                        <rect id="Background" fill="#FFFFFF" x="0" y="0" width="131" height="54" rx="4"></rect>
                        <g id="Text" transform="translate(39.000000, 16.200000)" fill="#DDE3E9">
                            <rect id="Name" x="0" y="0" width="73" height="8.1" rx="3"></rect>
                            <rect id="Name" x="0" y="13.5" width="49" height="8.1" rx="3"></rect>
                        </g>
                        <circle id="Avatar" fill="#C5CFD6" cx="21" cy="27" r="12"></circle>
                    </g>
                    <g id="Row" transform="translate(0.000000, 62.000000)">
                        <rect id="Background" fill="#FFFFFF" x="0" y="0" width="131" height="42" rx="4"></rect>
                        <g id="Text" transform="translate(39.000000, 12.600000)" fill="#DDE3E9">
                            <rect id="Name" x="0" y="0" width="73" height="6.3" rx="3"></rect>
                            <rect id="Name" x="0" y="10.5" width="49" height="6.3" rx="3"></rect>
                        </g>
                        <circle id="Avatar" fill="#C5CFD6" cx="21" cy="21" r="12"></circle>
                    </g>
                    <g id="Row" transform="translate(0.000000, 112.000000)">
                        <rect id="Background" fill="#FFFFFF" x="0" y="0" width="131" height="42" rx="4"></rect>
                        <g id="Text" transform="translate(39.000000, 12.600000)" fill="#DDE3E9">
                            <rect id="Name" x="0" y="0" width="73" height="6.3" rx="3"></rect>
                            <rect id="Name" x="0" y="10.5" width="49" height="6.3" rx="3"></rect>
                        </g>
                        <circle id="Avatar" fill="#AFB9C5" cx="21" cy="21" r="12"></circle>
                    </g>
                    <g id="Row" transform="translate(0.000000, 162.000000)">
                        <rect id="Background" fill="#FFFFFF" x="0" y="0" width="131" height="42" rx="4"></rect>
                        <g id="Text" transform="translate(39.000000, 12.600000)" fill="#DDE3E9">
                            <rect id="Name" x="0" y="0" width="73" height="6.3" rx="3"></rect>
                            <rect id="Name" x="0" y="10.5" width="49" height="6.3" rx="3"></rect>
                        </g>
                        <circle id="Avatar" fill="#C5CFD6" cx="21" cy="21" r="12"></circle>
                    </g>
                </g>
            </g>
            <g id="Mobile3" stroke-width="1" transform="translate(175.287162, 120.975000)">
                <g id="Group" transform="translate(0.000000, 218.000000)">
                    <path d="M12.139863,0 C10.8150371,0 9.4942504,0.0266022626 8.17108772,0.095441451 C7.1624999,0.14817927 5.62122565,-0.0609051802 4.76778691,0.567748289 C3.88108497,1.22067049 3.94214671,2.55731751 4.08066419,3.50123112 C4.81292983,8.49288902 6.60011418,12.9191321 10.3388981,16.4555996 C16.0955705,21.9011294 22.6949899,24.6679981 30.5042395,25.9001029 C35.9898168,26.7656098 41.0539017,25.563841 45.0920545,21.6628758 C48.0425006,27.1389749 50.2808765,33.1989237 51.4039848,39.3151105 C51.9580547,42.3330672 52.1272219,45.3146208 52.0298082,48.3876489 C51.9670833,50.3559829 51.8585027,52.31965 51.647519,54.2786499 C51.5560451,55.1299223 51.1219604,56.4184986 51.4553052,57.222867 C51.8463854,58.1674807 53.1652714,58.2589551 53.7573564,57.4534199 C54.250127,56.7829963 54.1596035,55.4664176 54.2608187,54.6730168 C54.4285603,53.355038 54.583947,52.0361258 54.6951411,50.7120799 C54.8757128,48.5689643 55.0092408,46.4197815 55,44.2684985 C54.9769279,39.4350541 53.9022889,34.582708 52.4322929,29.9945178 C49.6122862,21.1922025 45.0366951,13.3692704 37.9205081,7.23138172 C33.5449714,3.45712737 28.5371962,1.92866404 22.8556037,1.10819426 C19.3182997,0.597384143 15.7232603,0 12.139863,0" id="Fill-16" fill="#5C63AB"></path>
                    <path d="M32.5712675,35 C18.2723696,35 8.64204555,46.5241625 4.08868149,58.5015953 C2.37224237,63.0163306 1.96994464,67.9738742 1.30842479,72.7144486 C1.09603594,74.2357354 1.17471582,76.5539408 0.557219238,77.9092029 C0.333122071,78.4006816 -0.180638832,78.5773956 0.0650016363,79.2469528 C0.213697249,79.6524625 0.505468481,79.9008173 0.943593663,79.9813279 C1.84302649,80.1468978 3.11478377,79.1673519 3.88589345,78.780719 C10.2819123,75.5730304 14.484261,70.6132124 17.9124559,64.5448952 C20.0375153,60.7836392 22.1937187,56.8791017 23.4561093,52.7498622 C24.227219,50.2274235 24.6761159,47.5708006 24.9397871,44.953978 C25.0435228,43.9234876 25.1439802,42.8684346 25.1378918,41.8315761 C25.1318035,40.8029052 24.6531676,40.2591173 24.3091772,39.363721 C29.080316,37.5576904 34.465673,37.0655295 39.2986316,38.9370602 C43.7686325,40.6680385 47.4818078,44.0130955 49.5609705,48.2155678 C50.1011922,49.3079195 50.5177741,50.460313 50.8212537,51.6356771 C51.0198267,52.4055314 51.0294275,53.4044089 51.397537,54.1003482 C52.290179,55.7876597 54.1681928,54.6596013 53.9878848,53.088962 C53.4851297,48.7075013 50.9786134,44.3087559 47.774984,41.2625435 C43.7344442,37.4207769 38.2575282,35 32.5712675,35" id="Fill-18" fill="#2F3676"></path>
                </g>
                <rect id="Container" fill="#DDE3E9" x="48" y="0" width="159" height="302" rx="8"></rect>
                <circle id="Touch" fill="#FFFFFF" cx="127" cy="268" r="15"></circle>
                <g id="Camera" transform="translate(112.000000, 16.000000)" fill="#FFFFFF">
                    <circle id="Lens" cx="2" cy="2" r="2"></circle>
                    <rect id="Sensor" x="9" y="0" width="21" height="4" rx="2"></rect>
                </g>
                <g id="Rows" transform="translate(62.000000, 28.000000)">
                    <g id="Row">
                        <rect id="Container" fill="#FFFFFF" x="0" y="0" width="131" height="54" rx="4"></rect>
                        <g id="Text-Stuff" transform="translate(9.000000, 16.200000)" fill="#DDE3E9">
                            <rect id="Label" x="0" y="0" width="73" height="8.1" rx="3"></rect>
                            <rect id="Label" x="0" y="13.5" width="49" height="8.1" rx="3"></rect>
                        </g>
                        <g id="Check" transform="translate(110.000000, 20.000000)">
                            <circle id="Background" fill="#DDE3E9" cx="7" cy="7" r="7"></circle>
                            <circle id="Indicator" fill="#F2F2F2" cx="7" cy="7" r="3"></circle>
                        </g>
                    </g>
                    <g id="Row" transform="translate(0.000000, 62.000000)">
                        <rect id="Background" fill="#FFFFFF" x="0" y="0" width="131" height="42" rx="4"></rect>
                        <g id="Text" transform="translate(39.000000, 12.600000)" fill="#DDE3E9">
                            <rect id="Name" x="0" y="0" width="73" height="6.3" rx="3"></rect>
                            <rect id="Name" x="0" y="10.5" width="49" height="6.3" rx="3"></rect>
                        </g>
                        <circle id="Avatar" fill="#C5CFD6" cx="21" cy="21" r="12"></circle>
                    </g>
                    <g id="Row" transform="translate(0.000000, 112.000000)">
                        <rect id="Container" fill="#FFFFFF" x="0" y="0" width="131" height="42" rx="4"></rect>
                        <g id="Text-Stuff" transform="translate(9.000000, 12.600000)">
                            <rect id="Label" fill="#DDE3E9" x="0" y="0" width="73" height="6.3" rx="3"></rect>
                            <rect id="Label" fill="#AFB9C5" x="0" y="10.5" width="49" height="6.3" rx="3"></rect>
                        </g>
                        <g id="Check" transform="translate(110.000000, 14.000000)">
                            <circle id="Background" fill="#DDE3E9" cx="7" cy="7" r="7"></circle>
                            <circle id="Indicator" fill="#F2F2F2" cx="7" cy="7" r="3"></circle>
                        </g>
                    </g>
                    <g id="Row" transform="translate(0.000000, 162.000000)">
                        <rect id="Background" fill="#FFFFFF" x="0" y="0" width="131" height="42" rx="4"></rect>
                        <g id="Text" transform="translate(39.000000, 12.600000)" fill="#DDE3E9">
                            <rect id="Name" x="0" y="0" width="73" height="6.3" rx="3"></rect>
                            <rect id="Name" x="0" y="10.5" width="49" height="6.3" rx="3"></rect>
                        </g>
                        <circle id="Avatar" fill="#C5CFD6" cx="21" cy="21" r="12"></circle>
                    </g>
                </g>
            </g>
            <g id="Web" stroke-width="1" transform="translate(302.516892, 149.500000)">
                <rect id="Container" fill="#F2F2F2" x="0" y="0" width="335" height="346" rx="8"></rect>
                <rect id="Background" fill="#FFFFFF" x="249" y="43" width="70" height="81" rx="8"></rect>
                <g id="Profile-Info" transform="translate(259.000000, 58.000000)" fill="#DDE3E9">
                    <circle id="Avatar" cx="25" cy="16" r="16"></circle>
                    <rect id="Name" x="0" y="36" width="50" height="6" rx="3"></rect>
                    <rect id="Name" x="8" y="46" width="34" height="6" rx="3"></rect>
                </g>
                <path d="M8,0 L327,0 C331.418278,-8.11624501e-16 335,3.581722 335,8 L335,27 L335,27 L0,27 L0,8 C-5.41083001e-16,3.581722 3.581722,8.11624501e-16 8,0 Z" id="Header" fill="#C5CFD6"></path>
                <g id="Buttons" transform="translate(9.000000, 10.000000)" fill="#F2F2F2">
                    <circle id="buttons" cx="4" cy="4" r="4"></circle>
                    <circle id="buttons" cx="16" cy="4" r="4"></circle>
                    <circle id="buttons" cx="28" cy="4" r="4"></circle>
                </g>
                <g id="Components" transform="translate(249.000000, 132.000000)">
                    <rect id="Background" fill="#FFFFFF" x="0" y="0" width="70" height="194" rx="8"></rect>
                    <g id="Rows" transform="translate(18.000000, 18.000000)">
                        <rect id="Data" fill="#DDE3E9" x="0" y="0" width="34" height="26" rx="4"></rect>
                        <rect id="Data" fill="#AFB9C5" x="0" y="34" width="34" height="25" rx="4"></rect>
                        <rect id="Data" fill="#DDE3E9" x="0" y="67" width="34" height="25" rx="4"></rect>
                        <rect id="Data" fill="#DDE3E9" x="0" y="133" width="34" height="25" rx="4"></rect>
                        <rect id="Data" fill="#C5CFD6" x="0" y="100" width="34" height="25" rx="4"></rect>
                    </g>
                </g>
                <g id="Rows" transform="translate(16.000000, 44.000000)">
                    <g id="Row">
                        <rect id="Container" fill="#FFFFFF" x="0" y="0" width="225" height="47" rx="4"></rect>
                        <g id="Text-Stuff" transform="translate(9.000000, 14.100000)" fill="#DDE3E9">
                            <rect id="Label" x="0" y="0" width="167" height="7.05" rx="3"></rect>
                            <rect id="Label" x="0" y="11.75" width="112.09589" height="7.05" rx="3"></rect>
                        </g>
                        <g id="Check" transform="translate(193.954198, 16.500000)">
                            <circle id="Background" fill="#DDE3E9" cx="7" cy="7" r="7"></circle>
                            <circle id="Indicator" fill="#F2F2F2" cx="7" cy="7" r="3"></circle>
                        </g>
                    </g>
                    <g id="Row" transform="translate(0.000000, 55.000000)">
                        <rect id="Container" fill="#FFFFFF" x="0" y="0" width="225" height="39" rx="4"></rect>
                        <g id="Text-Stuff" transform="translate(9.000000, 11.700000)" fill="#DDE3E9">
                            <rect id="Label" x="0" y="0" width="167" height="5.85" rx="2.925"></rect>
                            <rect id="Label" x="0" y="9.75" width="112.09589" height="5.85" rx="2.925"></rect>
                        </g>
                        <g id="Check" transform="translate(193.954198, 12.500000)">
                            <circle id="Background" fill="#DDE3E9" cx="7" cy="7" r="7"></circle>
                            <circle id="Indicator" fill="#F2F2F2" cx="7" cy="7" r="3"></circle>
                        </g>
                    </g>
                    <g id="Row" transform="translate(0.000000, 102.000000)">
                        <rect id="Container" fill="#FFFFFF" x="0" y="0" width="225" height="39" rx="4"></rect>
                        <g id="Text-Stuff" transform="translate(9.000000, 11.700000)" fill="#DDE3E9">
                            <rect id="Label" x="0" y="0" width="167" height="5.85" rx="2.925"></rect>
                            <rect id="Label" x="0" y="9.75" width="112.09589" height="5.85" rx="2.925"></rect>
                        </g>
                        <g id="Check" transform="translate(193.954198, 12.500000)">
                            <circle id="Background" fill="#DDE3E9" cx="7" cy="7" r="7"></circle>
                            <circle id="Indicator" fill="#AFB9C5" cx="7" cy="7" r="3"></circle>
                        </g>
                    </g>
                    <g id="Row" transform="translate(0.000000, 243.000000)">
                        <rect id="Container" fill="#FFFFFF" x="0" y="0" width="225" height="39" rx="4"></rect>
                        <g id="Text-Stuff" transform="translate(9.000000, 11.700000)" fill="#DDE3E9">
                            <rect id="Label" x="0" y="0" width="167" height="5.85" rx="2.925"></rect>
                            <rect id="Label" x="0" y="9.75" width="112.09589" height="5.85" rx="2.925"></rect>
                        </g>
                        <g id="Check" transform="translate(193.954198, 12.500000)">
                            <circle id="Background" fill="#DDE3E9" cx="7" cy="7" r="7"></circle>
                            <circle id="Indicator" fill="#F2F2F2" cx="7" cy="7" r="3"></circle>
                        </g>
                    </g>
                    <g id="Row" transform="translate(0.000000, 196.000000)">
                        <rect id="Container" fill="#FFFFFF" x="0" y="0" width="225" height="39" rx="4"></rect>
                        <g id="Text-Stuff" transform="translate(9.000000, 11.700000)" fill="#DDE3E9">
                            <rect id="Label" x="0" y="0" width="167" height="5.85" rx="2.925"></rect>
                            <rect id="Label" x="0" y="9.75" width="112.09589" height="5.85" rx="2.925"></rect>
                        </g>
                        <g id="Check" transform="translate(193.954198, 12.500000)">
                            <circle id="Background" fill="#DDE3E9" cx="7" cy="7" r="7"></circle>
                            <circle id="Indicator" fill="#F2F2F2" cx="7" cy="7" r="3"></circle>
                        </g>
                    </g>
                    <g id="Row" transform="translate(0.000000, 149.000000)">
                        <rect id="Container" fill="#FFFFFF" x="0" y="0" width="225" height="39" rx="4"></rect>
                        <g id="Text-Stuff" transform="translate(9.000000, 11.700000)" fill="#DDE3E9">
                            <rect id="Label" x="0" y="0" width="167" height="5.85" rx="2.925"></rect>
                            <rect id="Label" x="0" y="9.75" width="112.09589" height="5.85" rx="2.925"></rect>
                        </g>
                        <g id="Check" transform="translate(193.954198, 12.500000)">
                            <circle id="Background" fill="#DDE3E9" cx="7" cy="7" r="7"></circle>
                            <circle id="Indicator" fill="#F2F2F2" cx="7" cy="7" r="3"></circle>
                        </g>
                    </g>
                </g>
            </g>
            <path d="M734.438254,327.675543 C730.493937,325.000897 725.248755,324.3 720.528646,324.3 C702.092784,324.3 684.76393,331.140049 669.793839,341.331869 C661.590973,346.916354 654.252889,354.027973 647.774416,361.432413 C644.035031,365.706588 640.700713,370.330491 638.340105,375.473043 C636.747165,378.944032 635.653818,382.560531 634.912736,386.290844 C634.009553,390.83695 633.292102,395.47526 632.967532,400.097002 C632.839772,401.916957 631.782243,411.57428 634.808238,411.737799 C634.790884,411.975873 634.786822,412.202782 634.805284,412.40628 C628.234868,422.679859 624.175345,434.720088 620.410852,446.135416 C617.135614,456.068992 614.21707,466.086488 612.322454,476.362949 C609.828177,489.892494 608.189819,503.625536 607.410704,517.349575 C607.243434,520.299033 607.128598,523.249932 607.029639,526.203351 C606.94582,528.722403 606.860892,531.241454 606.778181,533.760505 C606.685868,536.583542 606.188859,539.833745 606.637866,542.640214 C607.028531,545.084349 609.143959,544.714451 609.237379,542.282202 C609.350369,539.34499 609.331906,536.402015 609.460405,533.462642 C609.631367,529.561606 609.807499,525.660571 609.998401,521.760615 C611.327328,494.66875 616.312927,467.975236 625.513873,442.384213 C629.237379,432.028154 633.504051,422.2246 638.987767,412.644715 C643.809051,404.221705 649.608475,396.067384 655.536398,388.472773 C661.298159,381.092465 667.288485,373.882879 674.348155,367.629912 C680.077053,362.555793 686.378656,358.135387 692.85639,354.02221 C701.083996,348.798258 709.295723,343.701088 718.207916,339.69092 C722.840514,337.606598 727.560623,335.74054 732.229407,333.740499 C733.069448,333.380686 733.970047,333.031678 734.777963,332.614958 C737.473111,331.225049 736.585806,329.131723 734.438254,327.675543" id="Fill-1" fill="#8991DC"></path>
            <path d="M674.337606,423.65 C666.860316,423.65 660.206695,424.621586 653.317195,427.593116 C647.370172,430.157723 641.950492,433.552835 636.688528,437.249146 C629.28697,442.447709 623.457018,448.498195 619.376191,456.51497 C616.938186,461.30423 615.149807,468.081196 616.78707,473.304916 C618.715797,479.457388 624.011458,484.58864 630.98607,483.50453 C635.298955,482.834822 639.252637,479.979896 642.530638,477.292906 C646.452012,474.078309 649.591056,470.213042 652.182956,465.920114 C656.411078,458.917419 658.895634,451.00093 662.487331,443.683439 C664.191642,440.210477 665.838633,436.712699 667.879915,433.412094 C668.890481,431.7776 669.966358,430.158743 671.499404,428.94409 C672.319599,428.29444 675.777898,427.169875 674.455372,425.710796 C693.845814,425.965421 711.02371,440.857408 714.746027,459.290687 C715.092725,461.008811 715.363692,462.740872 715.649944,464.469534 C715.830588,465.561123 715.757636,469.586508 716.733463,470.283752 C718.885564,471.82204 717.980952,467.149044 717.888545,466.476277 C717.649886,464.737417 717.395247,462.999916 717.128102,461.265475 C715.674609,451.831436 711.474626,443.061324 704.470486,436.333312 C696.46099,428.639832 685.654284,423.65 674.337606,423.65" id="Fill-20" fill="#8991DC" transform="translate(667.155405, 453.650000) scale(-1, 1) translate(-667.155405, -453.650000) "></path>
            <g id="Plant" stroke-width="1" transform="translate(65.000000, 384.000000)">
                <path d="M9.93785602,35.7363701 C28.6043474,67.0518486 50.3448762,97.3738414 63.400835,131.612719 C62.8747124,127.576998 62.316848,123.545457 61.6924335,119.519653 C58.3796628,98.1788894 54.2624276,76.9938487 49.9359142,55.8347788 C47.7325965,45.061608 45.4023236,34.3274793 43.0122847,23.5942683 C41.7268475,17.8294571 40.457171,12.0611334 39.145247,6.30181171 C38.8274703,4.90590411 38.5544351,2.4694293 38.1565942,0 C50.8449133,41.636678 63.0807311,83.3047517 72.0307975,125.94239 C73.204927,131.538126 74.2047864,137.123918 75.0238081,142.699993 C75.3039851,141.427955 75.5795646,140.155702 75.8811982,138.88715 C79.5025613,123.679846 84.9347228,108.59358 91.4026624,94.3744557 C94.494721,87.5745292 98.0463864,80.9235176 102.228151,74.7261293 C104.835821,70.8630236 110.985519,66.2708832 113.364361,62.3144999 C100.354578,86.1759773 95.6569872,116.031633 88.1451337,141.973334 C86.3116359,148.30385 84.4667482,154.62409 82.659084,160.955464 C93.9872772,138.237255 111.563216,119.571486 136,111.482566 C106.420215,131.026943 88.6779699,165.254031 76.7221336,200.259757 C76.682738,200.674905 76.6358989,201.090058 76.5954089,201.505863 C80.1135643,194.828835 84.5452103,188.789483 90.5514934,184.559607 C103.406592,175.504479 117.667098,178.142392 130.137007,185.909854 C120.350227,179.688703 102.662664,185.353659 94.4280037,191.676694 C88.5328799,196.203004 83.4948291,202.275393 79.119821,208.199601 C78.071517,209.619676 76.6413193,211.276578 75.1303997,213.044484 C73.0120284,226.795282 69.5599117,240.451838 64.6724606,254 C65.4790179,250.11126 64.8958605,243.891877 65.11953,240.993318 C65.1438759,240.679499 65.1636243,240.365464 65.1877517,240.052521 C64.4448288,243.018848 63.7270637,245.951459 63.0359813,248.836783 C64.4097546,243.330925 65.1563919,237.583268 65.7392402,231.776207 C65.8893549,229.280566 66.0357479,226.784927 66.1904602,224.289502 C66.141426,219.553405 65.9463583,214.798592 65.6164284,210.036217 C64.4465561,205.407706 63.1367171,201.041891 62.0564998,197.41118 C58.158506,184.310429 52.4441742,171.759576 45.4108456,160.050843 C38.9937018,149.366014 31.3123836,139.687606 22.4447835,130.934599 C17.6643455,126.217405 12.6613846,121.724669 7.7288832,117.169517 C5.94526254,115.52278 2.75721952,111.473853 0,109.363232 C20.0804874,120.433766 40.7488532,132.410494 55.3976085,150.247606 C53.6802099,143.652644 51.8148695,137.151008 49.841671,130.779652 C39.8311473,98.4544622 27.1913357,64.9525261 9.93785602,35.7363701 Z" id="Fill-19" fill="#DDE3E9"></path>
                <path d="M30,213 C30,248.898509 32.8428117,278 71,278 C109.157188,278 112,248.898509 112,213" id="Base" fill="#C5CFD6"></path>
            </g>
            <g id="Graph" stroke-width="1" transform="translate(560.952703, 58.037500)">
                <rect id="Value" fill="#DDE3E9" x="0" y="32" width="6" height="25" rx="3"></rect>
                <rect id="Value" fill="#DDE3E9" x="14" y="16" width="6" height="41" rx="3"></rect>
                <rect id="Value" fill="#DDE3E9" x="28" y="8" width="6" height="49" rx="3"></rect>
                <rect id="Value" fill="#DDE3E9" x="42" y="16" width="6" height="41" rx="3"></rect>
                <rect id="Value" fill="#C5CFD6" x="56" y="0" width="6" height="57" rx="3"></rect>
            </g>
            <g id="Pie-Chart" stroke-width="1" transform="translate(51.567568, 384.850000) scale(-1, 1) translate(-51.567568, -384.850000) translate(31.567568, 364.850000)">
                <path d="M40,20.256388 C40,9.11740024 30.998,0 20,0 L20,20.256388 L33.668,35 C37.556,31.3953758 40,26.1074457 40,20.256388 Z" id="Value" fill="#F2F2F2"></path>
                <path d="M20.5292199,20 L0.332,20 C0.332,25.221 2.46179684,30.113 5.8286734,33.668 C9.53183367,37.556 14.8053278,40 20.5292199,40 C25.8017042,40 30.6278299,37.891 34.332,34.557 L20.5292199,20 Z" id="Value" fill="#AFB9C5"></path>
                <path d="M0,20 C0,9.002 9.002,0 20,0 L20,20 L0,20 Z M30,0 L22,18 L40,10 C38.22,5.334 34.223,1.78 30,0 Z" id="Value" fill="#C5CFD6"></path>
            </g>
            <g id="Chart" stroke-width="1" transform="translate(690.871622, 357.000000)">
                <path d="M37.7664728,37.179 C35.8448939,39.219 33.1227826,40.5 30.095205,40.5 C24.2778019,40.5 19.5618833,35.799 19.5618833,30 C19.5618833,24.201 24.2778019,19.5 30.095205,19.5 L30.095205,0 C13.5458518,0 0,13.503 0,30 C0,46.497 13.5458518,60 30.095205,60 C38.788205,60 46.6445583,56.334 52,50.502 L37.7664728,37.179 Z" id="Value" fill="#F2F2F2"></path>
                <path d="M30,0 L30,19.5 C35.799,19.5 40.5,24.201 40.5,30 L60,30 C60,13.503 46.497,0 30,0 Z" id="Value" fill="#AFB9C5"></path>
                <path d="M40.0969635,30 C40.0969635,33.4069834 38.4924726,36.4354131 36,38.3907651 L48.2618015,54 C55.3993366,48.4117535 60,39.7492845 60,30 L40.0969635,30 Z" id="Value" fill="#C5CFD6"></path>
            </g>
            <g id="Chart" stroke-width="1" transform="translate(494.824324, 69.450000)">
                <path d="M29.0511329,28.5039 C27.5729953,30.0679 25.4790636,31.05 23.1501577,31.05 C18.6752322,31.05 15.0476025,27.4459 15.0476025,23 C15.0476025,18.5541 18.6752322,14.95 23.1501577,14.95 L23.1501577,0 C10.419886,0 0,10.3523 0,23 C0,35.6477 10.419886,46 23.1501577,46 C29.8370808,46 35.8804294,43.1894 40,38.7182 L29.0511329,28.5039 Z" id="Value" fill="#F2F2F2"></path>
                <path d="M23,0 L23,14.95 C27.4459,14.95 31.05,18.5541 31.05,23 L46,23 C46,10.3523 35.6477,0 23,0 Z" id="Value" fill="#AFB9C5"></path>
                <path d="M31.0727226,23 C31.0727226,25.5552376 29.8693544,27.8265598 28,29.2930738 L37.1963511,41 C42.5495024,36.8088151 46,30.3119634 46,23 L31.0727226,23 Z" id="Value" fill="#C5CFD6"></path>
            </g>
            <g id="Image" stroke-width="1" transform="translate(85.179054, 63.637500)">
                <path d="M48.007,51.9862978 C48.003,51.9962978 47.999,52.0062978 47.993,52.0182978 C47.999,52.0082978 48.007,51.9682978 48.007,51.9862978" id="Fill-35" fill="#C5CFD6"></path>
                <path d="M47.9976864,52.0014952 C47.9976864,52.0034952 47.9956864,52.0074952 47.9956864,52.0114952 C47.9956864,52.0014952 48.0136864,51.9714952 47.9976864,52.0014952" id="Fill-37" fill="#C5CFD6"></path>
                <path d="M48.0671431,51.8323017 C48.0531431,51.8723017 48.0351431,51.9103017 48.0191431,51.9503017 C48.0271431,51.9303017 48.0351431,51.9143017 48.0431431,51.8943017 C47.8351431,52.4143017 47.9671431,52.0763017 48.0671431,51.8323017" id="Fill-39" fill="#C5CFD6"></path>
                <path d="M48.0223751,51.95275 C48.0143751,51.97075 48.0063751,51.99075 47.9983751,52.00875 C47.9403751,52.12075 48.0223751,51.95275 48.0223751,51.95275" id="Fill-41" fill="#C5CFD6"></path>
                <polygon id="Fill-43" fill="#C5CFD6" points="48 52.001 48 52.001 48 51.999"></polygon>
                <path d="M47.999,52.002 C47.999,52 47.999,52 48.001,51.998 C47.999,52 47.999,52 47.999,52.002" id="Fill-45" fill="#C5CFD6"></path>
                <path d="M47.9895117,52.0163509 C47.9775117,52.0403509 48.0455117,51.9243509 47.9895117,52.0163509" id="Fill-47" fill="#C5CFD6"></path>
                <path d="M47.998,52.002 L48.002,51.998 C48,52 48,52.002 47.998,52.002" id="Fill-49" fill="#C5CFD6"></path>
                <rect id="Photo-Background" fill="#DDE3E9" x="0" y="0" width="95" height="63" rx="4"></rect>
                <g id="icons8-night_landscape" transform="translate(8.000000, 18.000000)">
                    <polygon id="Mountains" fill="#AFB9C5" points="28 0 0 45 56 45"></polygon>
                    <polygon id="Mountains" fill="#C5CFD6" points="55.5 12 31 45 80 45"></polygon>
                </g>
                <circle id="Sun" fill="#FFFFFF" cx="74" cy="21" r="9"></circle>
            </g>
            <g id="Image" stroke-width="1" transform="translate(645.668919, 543.950000) scale(-1, 1) translate(-645.668919, -543.950000) translate(574.668919, 496.950000)">
                <path d="M71.007,76.9862978 C71.003,76.9962978 70.999,77.0062978 70.993,77.0182978 C70.999,77.0082978 71.007,76.9682978 71.007,76.9862978" id="Fill-35" fill="#C5CFD6"></path>
                <path d="M70.9976864,77.0014952 C70.9976864,77.0034952 70.9956864,77.0074952 70.9956864,77.0114952 C70.9956864,77.0014952 71.0136864,76.9714952 70.9976864,77.0014952" id="Fill-37" fill="#C5CFD6"></path>
                <path d="M71.0671431,76.8323017 C71.0531431,76.8723017 71.0351431,76.9103017 71.0191431,76.9503017 C71.0271431,76.9303017 71.0351431,76.9143017 71.0431431,76.8943017 C70.8351431,77.4143017 70.9671431,77.0763017 71.0671431,76.8323017" id="Fill-39" fill="#C5CFD6"></path>
                <path d="M71.0223751,76.95275 C71.0143751,76.97075 71.0063751,76.99075 70.9983751,77.00875 C70.9403751,77.12075 71.0223751,76.95275 71.0223751,76.95275" id="Fill-41" fill="#C5CFD6"></path>
                <polygon id="Fill-43" fill="#C5CFD6" points="71 77.001 71 77.001 71 76.999"></polygon>
                <path d="M70.999,77.002 C70.999,77 70.999,77 71.001,76.998 C70.999,77 70.999,77 70.999,77.002" id="Fill-45" fill="#C5CFD6"></path>
                <path d="M70.9895117,77.0163509 C70.9775117,77.0403509 71.0455117,76.9243509 70.9895117,77.0163509" id="Fill-47" fill="#C5CFD6"></path>
                <path d="M70.998,77.002 L71.002,76.998 C71,77 71,77.002 70.998,77.002" id="Fill-49" fill="#C5CFD6"></path>
                <rect id="Photo-Background" fill="#DDE3E9" x="0" y="0" width="142" height="94" rx="4"></rect>
                <g id="icons8-night_landscape" transform="translate(11.000000, 27.000000)">
                    <polygon id="Mountains" fill="#AFB9C5" points="41.7257937 0 0.670793651 67 82.7807937 67"></polygon>
                    <polygon id="Mountains" fill="#C5CFD6" points="84.0557937 17.9464286 47.7607937 67 120.350794 67"></polygon>
                </g>
                <circle id="Sun" fill="#FFFFFF" cx="110.5" cy="31.5" r="13.5"></circle>
            </g>
        </g>
        <g id="A-Human/Standing" transform="translate(-25.000000, 44.000000)">
            <g id="Head/Front/Short-2" transform="translate(82.000000, 0.000000)">
                <g id="Head" stroke-width="1" transform="translate(54.000000, 31.000000)" fill="#D4A181">
                    <path d="M38.1433414,9.13393292 C43.9381521,19.9350547 43.249578,47.3329958 35.7603014,49.2634576 C32.773664,50.0333035 26.4113241,48.1475566 19.935865,44.2446031 L24,73 L0,73 L8.26160177,34.4893378 C3.65406109,29.0807313 0.535660132,22.452516 1.05677633,15.0254539 C2.55833022,-6.37502057 32.3485306,-1.66718886 38.1433414,9.13393292 Z"></path>
                </g>
                <path d="M60.4181384,70.3075201 C57.4059021,56.9064588 48.8245327,47.7714043 50.1351137,41.781703 C51.0088343,37.7885688 53.3375617,35.3053788 57.1212959,34.3321331 C59.0782074,26.4155009 65.3896485,23.0482486 76.0556193,24.2303763 C92.0545754,26.0035679 101.819448,32.6477587 97.6024819,47.2678779 C93.7260987,47.2678779 89.0464758,45.8659867 82.57553,48.2678779 C80.5223249,49.0299883 79.0538125,51.3933595 78.1699927,55.3579915 L75.2457978,55.3579915 C72.4077436,50.6530572 69.6094038,48.9241222 66.8507787,50.1711866 C64.0921535,51.418251 63.4650732,54.4473753 64.9695377,59.2585597 L63.529076,70.3075201 L60.4181384,70.3075201 Z" id="Hair" fill="#191847"></path>
            </g>
            <g id="Bottom/Standing/Sweatpants" transform="translate(0.000000, 187.000000)">
                <polygon id="Leg" fill="#BA8B72" points="128 9.9475983e-14 164.630838 126.226909 181.860154 221 199.153197 221 181.890974 9.9475983e-14"></polygon>
                <path d="M111.537727,0 C114.093705,65.5742244 113.085665,101.340188 112.513606,107.297892 C111.941548,113.255595 108.69393,153.156298 86.5636874,223 L104.549973,223 C133.85784,155.996902 144.088936,116.096199 147.450326,107.297892 C150.811717,98.4995844 160.739403,62.7336205 175.233385,0 L111.537727,0 Z" id="Leg" fill="#D4A181"></path>
                <path d="M127.213639,1.13686838e-13 C136.741891,43.4350253 153.221683,112.768359 176.653017,208 L201.946059,208 C203.814239,110.253828 195.86709,45.9204947 182.104613,1.13686838e-13 L127.213639,1.13686838e-13 Z" id="Pant" fill="#C5CFD6"></path>
                <path d="M111.409919,0 C113.913164,65.5742244 107.425844,130.177256 87.3305078,209.020958 L114.316793,209.020958 C143.678541,143.017859 164.723052,78.7336205 179.105577,0 L111.409919,0 Z" id="Pant" fill="#AFB9C5"></path>
                <g id="Accessories/Shoe/Flat-Simple" transform="translate(84.000000, 199.000000)" fill="#191847">
                    <path d="M0,37 L0.99242267,21 C6.8029179,22.6994251 14.0806841,22.0327584 22.8257214,19 C32.2287535,25.660617 44.0659431,30.2086712 58.3372903,32.6441626 C59.4261013,32.829999 60.1581292,33.8632891 59.9723163,34.9521041 C59.9602834,35.0226139 59.9444765,35.0924273 59.9249637,35.1612435 L58.5529375,40 L58.5529375,40 L22.8257214,40 L1.98484534,40 L0,37 Z" id="Shoe"></path>
                </g>
                <g id="Accessories/Shoe/Flat-Simple" transform="translate(178.000000, 199.000000)" fill="#191847">
                    <path d="M0,37 L0.99242267,21 C6.8029179,22.6994251 14.0806841,22.0327584 22.8257214,19 C32.2287535,25.660617 44.0659431,30.2086712 58.3372903,32.6441626 C59.4261013,32.829999 60.1581292,33.8632891 59.9723163,34.9521041 C59.9602834,35.0226139 59.9444765,35.0924273 59.9249637,35.1612435 L58.5529375,40 L58.5529375,40 L22.8257214,40 L1.98484534,40 L0,37 Z" id="Shoe"></path>
                </g>
            </g>
            <g id="Body/Trench-Coat" transform="translate(22.000000, 82.000000)">
                <path d="M54.3748075,70.4422362 L71.7206892,74.8517457 C48.5010655,113.888004 36.0840272,134.518222 34.4695742,136.742401 C30.8370549,141.746803 33.4753713,151.405575 34.3717289,156.466114 C27.0159775,157.777312 30.4552622,146.986888 21.1392043,148.78923 C12.6359386,150.434324 5.23841582,155.412199 -2.21044035,147.785504 C-3.12623345,146.847846 -3.68533756,144.037711 -0.329858103,142.787288 C8.0298649,139.672029 20.4540206,133.669529 22.5472206,131.196025 C25.4016727,127.82296 36.0108683,107.571697 54.3748075,70.4422362 L54.3748075,70.4422362 Z M197.692975,90.2442388 L227.879596,115.83589 C236.347145,118.768177 243.354953,122.169788 248.90302,126.040723 C250.183668,127.382731 251.660283,130.022417 246.018183,129.189525 C240.376083,128.356632 234.403982,127.734299 233.485976,129.614404 C232.56797,131.49451 235.838922,134.048404 234.074175,136.548369 C232.897677,138.215012 228.219551,133.502554 220.039797,122.410996 L189.442799,107.140857 L197.692975,90.2442388 Z" id="Skin" fill="#D4A181" transform="translate(123.586250, 113.509597) rotate(-4.000000) translate(-123.586250, -113.509597) "></path>
                <path d="M138.264162,2.04144427 C153.1728,32.8586321 173.34952,62.4239679 203.321564,87.6788376 C207.426219,87.3835185 211.889688,88.0634542 216.675075,89.6758318 C219.030261,90.4693828 220.296216,93.0219384 219.502665,95.3771242 C219.041858,96.7447568 217.987913,97.7450999 216.723906,98.188165 C217.638754,98.8563073 218.562849,99.520867 219.495159,100.181671 L211.447983,116.609623 C177.58505,99.7255288 145.757134,86.9958405 131.253857,59.1215578 C126.386182,49.766228 128.033751,17.9882599 127.569134,6.42756866 L138.264162,2.04144427 Z" id="Back-Arm" fill="#8991DC"></path>
                <path d="M90,113.909745 C121.438326,117.363418 146.183737,117.363418 164.236234,113.909745 C166.472817,113.481858 166.374598,103.840401 165.337385,101.207228 C149.185283,60.2018743 138.560302,30.1840325 138.560302,1.70263734 C135.596594,3.25072994 130.409827,3.48273097 123,2.39864042 C103.086202,31.7496339 93.9325378,65.4265407 90,113.909745 Z" id="Shirt" fill="#191847"></path>
                <path d="M126.348425,-1.0658141e-14 C123,44.2807404 169.249642,140.9549 153.190593,223.518112 C123.507857,230.146789 81.1319105,209.522766 39.8828129,226 C41.4177174,192.750378 72.1641281,153.689543 84.1591577,118.756122 C83.0907846,117.752921 82.5343434,116.247171 82.8078928,114.695795 L83.3288374,111.741372 C83.6816959,109.740212 85.3063314,108.28273 87.2249777,108.053567 C87.5631559,106.554137 87.8526566,105.063334 88.0917371,103.583451 C90.1104671,91.0877276 86.6615358,78.8352569 86.8232868,66.8032625 C70.7430616,80.5217718 56.3180199,104.211352 43.5479488,137.871041 L43.5479488,137.871041 L24.6611622,132.313477 C25.3819892,129.635524 26.1286459,126.990471 26.9011324,124.378317 C24.72195,123.144957 22.1728798,117.466228 24.0066041,116.516161 C25.8996562,115.535355 27.905105,114.844989 30.0170446,114.438594 C47.3349841,62.2796711 75.6543384,24.1331607 114.975674,-4.19220214e-13 L114.975674,-4.19220214e-13 Z" id="Coat-Front" fill="#8991DC"></path>
                <polygon id="Shade-Lapel" fill-opacity="0.1" fill="#000000" points="119.105759 1 113.946604 16.8654451 124.335997 28.7590435 114.946604 38.1055065 137.662251 77 109.883587 38.1832119 119.105759 28.7590435 109.883587 18.2484583"></polygon>
                <path d="M137,130 C139.209139,130 141,131.790861 141,134 C141,136.209139 139.209139,138 137,138 C134.790861,138 133,136.209139 133,134 C133,131.790861 134.790861,130 137,130 Z M136,107 C138.209139,107 140,108.790861 140,111 C140,113.209139 138.209139,115 136,115 C133.790861,115 132,113.209139 132,111 C132,108.790861 133.790861,107 136,107 Z M131,84 C133.209139,84 135,85.790861 135,88 C135,90.209139 133.209139,92 131,92 C128.790861,92 127,90.209139 127,88 C127,85.790861 128.790861,84 131,84 Z" id="Buttons" fill-opacity="0.4" fill="#000000"></path>
            </g>
        </g>
        <rect id="矩形" fill-opacity="0.3" fill="#000000" x="0" y="0" width="885" height="513"></rect>
    </g>
</svg>