<?xml version="1.0" encoding="UTF-8"?>
<svg width="1003px" height="253px" viewBox="0 0 1003 253" version="1.1" xmlns="http://www.w3.org/2000/svg" xmlns:xlink="http://www.w3.org/1999/xlink">
    <!-- Generator: Sketch 61 (89581) - https://sketch.com -->
    <title>画板</title>
    <desc>Created with Sketch.</desc>
    <g id="画板" stroke="none" stroke-width="1" fill="none" fill-rule="evenodd">
        <g id="logo-revert" fill="#000000" fill-rule="nonzero">
            <path d="M262.603854,175.997266 L263.3015,134.846911 C263.580558,119.310552 263.092206,110.772553 261.975972,98.5254237 L273.696426,159.481137 L290.998047,159.481137 L301.881326,98.5254237 C300.904621,111.472389 300.27674,119.100601 300.695327,134.496993 L301.881326,175.997266 L321.834002,175.997266 L316.392363,79 L292.881692,79 L282.69606,141.705303 L271.952311,79 L248.441639,79 L243,175.997266 L262.603854,175.997266 Z M382.208056,178.376709 C394.835449,178.376709 404.811788,174.177693 411.788248,168.159103 L402.928143,156.121925 C397.067917,159.901039 390.719338,162.280481 383.952171,162.280481 C374.53395,162.280481 367.627254,157.451613 366.162197,145.274467 L414.160245,145.274467 C414.439303,143.034992 414.578832,139.88573 414.578832,137.36632 C414.578832,113.43193 400.974734,99.2252597 379.83606,99.2252597 C356.534682,99.2252597 343.697995,116.93111 343.697995,138.90596 C343.697995,162.000547 356.743976,178.376709 382.208056,178.376709 Z M393.091334,131.977583 L365.883139,131.977583 C366.859843,119.520503 371.952659,114.061782 379.83606,114.061782 C389.254281,114.061782 392.951805,121.200109 393.091334,131.977583 Z M474.185475,207 C500.416966,207 513.81177,197.692182 513.81177,182.435757 C513.81177,170.04866 502.788963,160.950793 485.557106,160.950793 L473.418065,160.950793 C466.302075,160.950793 465.255606,158.711318 465.255606,156.401859 C465.255606,154.722253 466.092781,152.972663 467.697367,152.132859 C470.348422,152.692728 473.139006,152.972663 476.278413,152.972663 C495.463679,152.972663 507.672485,142.475123 507.672485,128.058502 C507.672485,118.470749 502.649434,112.942045 493.370741,108.95298 C502.649434,108.95298 509.486365,108.113177 514.71871,106.013669 L509.556129,89.777474 C500.62626,95.0262438 491.277803,99.7151449 474.743592,99.3652269 C455.418797,99.3652269 441.605405,109.722799 441.605405,126.448879 C441.605405,136.106616 445.372694,142.685074 454.86068,147.723893 C449.55857,151.083106 446.488928,156.331875 446.488928,161.790596 C446.488928,169.768726 453.325859,176.627119 469.371718,176.627119 L481.161936,176.627119 C488.626748,176.627119 491.905685,179.56643 491.905685,183.975396 C491.905685,188.804265 488.766277,192.443412 474.743592,192.443412 C460.720907,192.443412 457.860558,189.644068 457.860558,183.135593 L438.326469,183.135593 C438.326469,197.832149 445.721517,207 474.185475,207 Z M475.301709,138.90596 C468.464778,138.90596 463.930078,134.357026 463.930078,126.168945 C463.930078,118.400765 468.325249,113.711864 475.301709,113.711864 C482.766522,113.711864 486.603575,117.560962 486.603575,125.88901 C486.603575,134.496993 482.626992,138.90596 475.301709,138.90596 Z M560.651491,178.376709 C569.860418,178.376709 579.348405,175.157463 585.069102,168.299071 C588.487568,174.457627 594.487324,177.256971 603.207899,178.096774 L607.742598,163.540186 C604.254368,162.280481 602.859076,160.180973 602.859076,154.582285 L602.859076,125.469109 C602.859076,108.463095 592.533915,99.2252597 570.4883,99.2252597 C562.256077,99.2252597 551.163505,101.114817 541.605754,104.753964 L546.69857,119.450519 C554.093618,116.93111 562.256077,115.531438 567.00007,115.531438 C576.55782,115.531438 581.650637,119.170585 581.650637,126.938764 L581.650637,129.738108 L571.674298,129.738108 C548.791508,129.738108 535.605998,138.90596 535.605998,155.002187 C535.605998,168.718972 545.373043,178.376709 560.651491,178.376709 Z M568.255833,162.560416 C561.977018,162.560416 558.349259,159.201203 558.349259,153.462548 C558.349259,146.184254 563.930427,142.335156 576.208997,142.335156 L581.650637,142.335156 L581.650637,154.372335 C578.929817,159.621104 572.999826,162.560416 568.255833,162.560416 Z M660.791369,175.997266 C684.860157,175.997266 707.603418,166.479497 707.603418,127.008748 C707.603418,86.9781301 683.883453,79 659.117018,79 L634.699407,79 L634.699407,175.997266 L660.791369,175.997266 Z M662.465719,159.411154 L657.582197,159.411154 L657.582197,95.6560962 L662.465719,95.6560962 C674.60476,95.6560962 683.883453,100.904866 683.883453,127.008748 C683.883453,152.552761 675.162877,159.411154 662.465719,159.411154 Z M746.559738,175.997266 L751.652554,155.072171 L779.976983,155.072171 L785.069799,175.997266 L809.557175,175.997266 L779.976983,79 L752.210671,79 L722.630479,175.997266 L746.559738,175.997266 Z M776.209695,138.416074 L755.280314,138.416074 L765.745004,95.516129 L776.209695,138.416074 Z M874.047341,175.997266 L874.047341,96.565883 L899.930009,96.565883 L902.302005,79 L824.02612,79 L824.02612,96.565883 L851.164551,96.565883 L851.164551,175.997266 L874.047341,175.997266 Z M940.002563,175.997266 L945.095379,155.072171 L973.419808,155.072171 L978.512624,175.997266 L1003,175.997266 L973.419808,79 L945.653496,79 L916.073304,175.997266 L940.002563,175.997266 Z M969.652519,138.416074 L948.723138,138.416074 L959.187829,95.516129 L969.652519,138.416074 Z" id="形状" fill-opacity="0.85"></path>
            <circle id="椭圆形" fill-opacity="0.45" cx="202" cy="75" r="7"></circle>
            <circle id="椭圆形" fill-opacity="0.85" cx="225" cy="55" r="10"></circle>
            <circle id="椭圆形" fill-opacity="0.85" cx="180" cy="21" r="10"></circle>
            <circle id="椭圆形" fill-opacity="0.85" cx="123" cy="10" r="10"></circle>
            <circle id="椭圆形" fill-opacity="0.85" cx="68" cy="27" r="10"></circle>
            <circle id="椭圆形" fill-opacity="0.85" cx="27" cy="67" r="10"></circle>
            <circle id="椭圆形" fill-opacity="0.85" cx="10" cy="120" r="10"></circle>
            <circle id="椭圆形" fill-opacity="0.85" cx="20" cy="176" r="10"></circle>
            <circle id="椭圆形" fill-opacity="0.85" cx="56" cy="220" r="10"></circle>
            <circle id="椭圆形" fill-opacity="0.85" cx="109" cy="243" r="10"></circle>
            <circle id="椭圆形" fill-opacity="0.85" cx="166" cy="240" r="10"></circle>
            <circle id="椭圆形" fill-opacity="0.85" cx="215" cy="210" r="10"></circle>
            <circle id="椭圆形" fill-opacity="0.45" cx="169" cy="49" r="7"></circle>
            <circle id="椭圆形" fill-opacity="0.45" cx="125" cy="39" r="7"></circle>
            <circle id="椭圆形" fill-opacity="0.45" cx="88" cy="54" r="7"></circle>
            <circle id="椭圆形" fill-opacity="0.45" cx="59" cy="84" r="7"></circle>
            <circle id="椭圆形" fill-opacity="0.45" cx="44" cy="121" r="7"></circle>
            <circle id="椭圆形" fill-opacity="0.45" cx="53" cy="163" r="7"></circle>
            <circle id="椭圆形" fill-opacity="0.45" cx="80" cy="196" r="7"></circle>
            <circle id="椭圆形" fill-opacity="0.45" cx="116" cy="211" r="7"></circle>
            <circle id="椭圆形" fill-opacity="0.45" cx="158" cy="209" r="7"></circle>
            <circle id="椭圆形" fill-opacity="0.45" cx="196" cy="189" r="7"></circle>
        </g>
    </g>
</svg>